<svg xmlns="http://www.w3.org/2000/svg" viewBox="0 0 100 100" role="img" aria-label="ACM Global Tech"><rect width="100" height="100" rx="22" fill="#1F4FFF"/><g transform="translate(14 40.80) scale(0.01656 -0.01656) translate(-73.0 -1086.0)"><path d="M494 718 105 759Q127 861 168.5 919.5Q210 978 288 1021Q344 1052 442.0 1069.0Q540 1086 654 1086Q837 1086 948.0 1065.5Q1059 1045 1133 980Q1185 935 1215.0 852.5Q1245 770 1245 695V226Q1245 151 1254.5 108.5Q1264 66 1296 0H914Q891 41 884.0 62.5Q877 84 870 130Q790 53 711 20Q603 -24 460 -24Q270 -24 171.5 64.0Q73 152 73 281Q73 402 144 480Q215 558 406 596Q635 642 703.0 660.5Q771 679 847 709Q847 784 816.0 814.0Q785 844 707 844Q607 844 557 812Q518 787 494 718ZM847 504Q763 474 672 451Q548 418 515 386Q481 353 481 311Q481 263 514.5 232.5Q548 202 613 202Q681 202 739.5 235.0Q798 268 822.5 315.5Q847 363 847 439ZM2161 415 2548 371Q2516 250 2443.0 161.5Q2370 73 2256.5 24.0Q2143 -25 1968 -25Q1799 -25 1686.5 6.5Q1574 38 1493.0 108.5Q1412 179 1366.0 274.0Q1320 369 1320 526Q1320 690 1376 799Q1417 879 1488.0 942.5Q1559 1006 1634 1037Q1753 1086 1939 1086Q2199 1086 2335.5 993.0Q2472 900 2527 721L2144 670Q2126 738 2078.5 772.5Q2031 807 1951 807Q1850 807 1787.5 734.5Q1725 662 1725 515Q1725 384 1787.0 316.0Q1849 248 1945 248Q2025 248 2079.5 289.0Q2134 330 2161 415ZM2618 1062H2998V907Q3080 1004 3163.5 1045.0Q3247 1086 3365 1086Q3492 1086 3566.0 1041.0Q3640 996 3687 907Q3783 1011 3862.0 1048.5Q3941 1086 4057 1086Q4228 1086 4324.0 984.5Q4420 883 4420 667V0H4012V605Q4012 677 3984 712Q3943 767 3882 767Q3810 767 3766.0 715.0Q3722 663 3722 548V0H3314V585Q3314 655 3306 680Q3293 720 3261.0 744.5Q3229 769 3186 769Q3116 769 3071.0 716.0Q3026 663 3026 542V0H2618Z" fill="#fff"/></g></svg>
