<svg xmlns="http://www.w3.org/2000/svg" viewBox="73.0 -1086.0 4507.0 1111.0" role="img" aria-label="acm"><path transform="scale(1,-1)" d="M494 718 105 759Q127 861 168.5 919.5Q210 978 288 1021Q344 1052 442.0 1069.0Q540 1086 654 1086Q837 1086 948.0 1065.5Q1059 1045 1133 980Q1185 935 1215.0 852.5Q1245 770 1245 695V226Q1245 151 1254.5 108.5Q1264 66 1296 0H914Q891 41 884.0 62.5Q877 84 870 130Q790 53 711 20Q603 -24 460 -24Q270 -24 171.5 64.0Q73 152 73 281Q73 402 144 480Q215 558 406 596Q635 642 703.0 660.5Q771 679 847 709Q847 784 816.0 814.0Q785 844 707 844Q607 844 557 812Q518 787 494 718ZM847 504Q763 474 672 451Q548 418 515 386Q481 353 481 311Q481 263 514.5 232.5Q548 202 613 202Q681 202 739.5 235.0Q798 268 822.5 315.5Q847 363 847 439ZM2241 415 2628 371Q2596 250 2523.0 161.5Q2450 73 2336.5 24.0Q2223 -25 2048 -25Q1879 -25 1766.5 6.5Q1654 38 1573.0 108.5Q1492 179 1446.0 274.0Q1400 369 1400 526Q1400 690 1456 799Q1497 879 1568.0 942.5Q1639 1006 1714 1037Q1833 1086 2019 1086Q2279 1086 2415.5 993.0Q2552 900 2607 721L2224 670Q2206 738 2158.5 772.5Q2111 807 2031 807Q1930 807 1867.5 734.5Q1805 662 1805 515Q1805 384 1867.0 316.0Q1929 248 2025 248Q2105 248 2159.5 289.0Q2214 330 2241 415ZM2778 1062H3158V907Q3240 1004 3323.5 1045.0Q3407 1086 3525 1086Q3652 1086 3726.0 1041.0Q3800 996 3847 907Q3943 1011 4022.0 1048.5Q4101 1086 4217 1086Q4388 1086 4484.0 984.5Q4580 883 4580 667V0H4172V605Q4172 677 4144 712Q4103 767 4042 767Q3970 767 3926.0 715.0Q3882 663 3882 548V0H3474V585Q3474 655 3466 680Q3453 720 3421.0 744.5Q3389 769 3346 769Q3276 769 3231.0 716.0Q3186 663 3186 542V0H2778Z" fill="#0B1422"/></svg>
